:version 1.10
:name ASF
:units
  mass 1
  length 1
  angle deg
:documentation
  ASF file generated by Kaydara
:root
  axis xyz
  order  tx ty tz rx ry rz
  position 0 0 0
  orientation 0 0 0
:bonedata
  begin
    id 1
    name RightUpLegDummy
    direction -0.718183 -0.695806 0.00816078
    length 4.904
    axis 0 0 0 xyz
  end
  begin
    id 2
    name RightUpLeg
    direction 3.53373e-006 -0.995788 0.0916898
    length 17.4976
    axis -3.49089 -0.000906625 0.000286804 xyz
    dof rx ry rz
  end
  begin
    id 3
    name RightLeg
    direction 0.00371092 -0.995096 -0.0988419
    length 16.5821
    axis 3.68512 0.0193738 -0.131023 xyz
    dof rx ry rz
  end
  begin
    id 4
    name RightFoot
    direction 0.00079151 -0.46099 0.887405
    length 3.77069
    axis 4.81691e-005 -0.120479 -0.188788 xyz
    dof rx ry rz
  end
  begin
    id 5
    name RightToes
    direction 0 0 0
    length 0
    axis 0 0 0 xyz
    dof rx ry rz
  end
  begin
    id 6
    name SpineDummy
    direction 8.3039e-015 1 4.57515e-016
    length 4.6813
    axis 0 0 0 xyz
  end
  begin
    id 7
    name Spine
    direction -3.15643e-008 0.999988 0.00495137
    length 10.1015
    axis -0.001389 0.000121418 2.40972e-006 xyz
    dof rx ry rz
  end
  begin
    id 8
    name Spine1
    direction 0 0 0
    length 0
    axis -0.001389 0.000121451 1.30017e-006 xyz
    dof rx ry rz
  end
  begin
    id 9
    name HEadDummy
    direction -1.99912e-008 0.999999 0.00127422
    length 3.43865
    axis -0.001389 0.000121451 1.30017e-006 xyz
  end
  begin
    id 10
    name HEad
    direction 0 0 0
    length 0
    axis 0 0 0 xyz
    dof rx ry rz
  end
  begin
    id 11
    name LeftShoulder1Dummy
    direction 0.998891 -0.0402509 -0.0244456
    length 3.5433
    axis -0.001389 0.000121451 1.30017e-006 xyz
  end
  begin
    id 12
    name LeftShoulder1
    direction 0.99951 -0.000327763 0.0313091
    length 4.05031
    axis -0.001389 0.000121451 1.30017e-006 xyz
    dof rx ry rz
  end
  begin
    id 13
    name LeftArm
    direction 0.998561 -0.00100056 -0.0536182
    length 10.3537
    axis -23.1894 0.134784 0.967509 xyz
    dof rx ry rz
  end
  begin
    id 14
    name LeftForeArm
    direction 0.998903 0.00866432 0.046012
    length 8.70632
    axis -9.91835 -0.06569 -0.177794 xyz
    dof rx ry rz
  end
  begin
    id 15
    name LeftHand
    direction 0 0 0
    length 0
    axis 0 0 0 xyz
    dof rx ry rz
  end
  begin
    id 16
    name RightShoulderDummy
    direction -0.998891 -0.0402509 -0.0244414
    length 3.5433
    axis -0.001389 0.000121451 1.30017e-006 xyz
  end
  begin
    id 17
    name RightShoulder
    direction -0.99951 -0.000327807 0.0313133
    length 4.05031
    axis 0.215806 0.000203643 -0.0068026 xyz
    dof rx ry rz
  end
  begin
    id 18
    name RightArm
    direction -0.998573 -0.000999564 -0.053403
    length 10.3947
    axis -23.2009 -0.134239 -0.964101 xyz
    dof rx ry rz
  end
  begin
    id 19
    name RightForeArm
    direction -0.998898 0.00868028 0.0461306
    length 8.68355
    axis -9.92322 0.0658061 0.178868 xyz
    dof rx ry rz
  end
  begin
    id 20
    name RightHand
    direction 0 0 0
    length 0
    axis 0 0 0 xyz
    dof rx ry rz
  end
  begin
    id 21
    name LeftUpLegDummy
    direction 0.718183 -0.695806 0.00816078
    length 4.904
    axis 0 0 0 xyz
  end
  begin
    id 22
    name LeftUpLeg
    direction -6.81752e-006 -0.995793 0.0916337
    length 17.4976
    axis -3.48766 0.00143442 -0.000524262 xyz
    dof rx ry rz
  end
  begin
    id 23
    name LeftLeg
    direction -0.00601358 -0.995091 -0.0987824
    length 16.5821
    axis 3.68178 -0.00654042 -0.000285133 xyz
    dof rx ry rz
  end
  begin
    id 24
    name LeftFoot
    direction -0.00417578 -0.460984 0.887399
    length 3.77069
    axis 1.87233e-006 4.66016e-005 -8.6538e-006 xyz
    dof rx ry rz
  end
  begin
    id 25
    name LeftToes
    direction 0 0 0
    length 0
    axis 0 0 0 xyz
    dof rx ry rz
  end
:hierarchy
  begin
    root RightUpLegDummy SpineDummy LeftUpLegDummy
    RightUpLegDummy RightUpLeg
    RightUpLeg RightLeg
    RightLeg RightFoot
    RightFoot RightToes
    SpineDummy Spine
    Spine Spine1
    Spine1 HEadDummy LeftShoulder1Dummy RightShoulderDummy
    HEadDummy HEad
    LeftShoulder1Dummy LeftShoulder1
    LeftShoulder1 LeftArm
    LeftArm LeftForeArm
    LeftForeArm LeftHand
    RightShoulderDummy RightShoulder
    RightShoulder RightArm
    RightArm RightForeArm
    RightForeArm RightHand
    LeftUpLegDummy LeftUpLeg
    LeftUpLeg LeftLeg
    LeftLeg LeftFoot
    LeftFoot LeftToes
  end

:SAMPLES-PER-SECOND 30
:FULLY-SPECIFIED
:DEGREES
469
root  5.16348 36.7282 7.71918 62.0352 88.3377 54.3081
RightUpLeg  -44.1699 -19.0236 1.72923
RightLeg  50.9589 -1.26108 -2.00101
RightFoot  -5.44935 -0.308841 4.89201
RightToes  0.000481921 0.542163 -0.142578
Spine  56.194 -2.44291 6.28569
Spine1  -16.351 0.456135 0.934682
HEad  -31.1079 2.45892 -2.17087
LeftShoulder1  7.21323 -13.595 -36.0974
LeftArm  0.483312 -21.5703 -42.6995
LeftForeArm  -175.296 -58.5473 -164.991
LeftHand  -0.25398 0.0180481 5.50724
RightShoulder  4.05349 10.0392 23.7512
RightArm  -2.82732 15.3492 47.4804
RightForeArm  165.214 61.3201 161.456
RightHand  -1.19306 2.60568 -17.4696
LeftUpLeg  -42.1739 17.7385 -7.25746
LeftLeg  41.9796 7.36803 7.43414
LeftFoot  -8.64538 0.049355 0.121347
LeftToes  1.06245e-005 4.65868e-005 -8.65517e-006
470
root  5.15961 36.8323 7.90938 61.4419 88.2055 53.6275
RightUpLeg  -45.3489 -19.5619 -0.3996
RightLeg  53.2414 3.83968 5.12115
RightFoot  -1.95676 -1.09248 13.1706
RightToes  0.000481921 0.542163 -0.142578
Spine  56.2633 -2.46074 6.14079
Spine1  -16.749 0.593912 0.624676
HEad  -31.1676 2.57277 -2.4264
LeftShoulder1  7.29264 -13.684 -36.3345
LeftArm  0.299426 -21.5311 -42.7006
LeftForeArm  -175.383 -58.4312 -165.05
LeftHand  -0.25398 0.0180481 5.50724
RightShoulder  4.03068 10.0379 23.5767
RightArm  -2.851 15.5456 47.2835
RightForeArm  165.37 61.238 161.531
RightHand  -1.14885 2.40156 -17.2583
LeftUpLeg  -41.8307 17.8021 -6.88119
LeftLeg  41.2294 7.38007 7.26653
LeftFoot  -8.14184 0.0635851 -0.528436
LeftToes  1.06245e-005 4.65868e-005 -8.65517e-006
471
root  5.16146 36.8712 8.16204 57.6494 88.0664 49.8261
RightUpLeg  -45.7945 -18.8263 -3.30867
RightLeg  54.9192 7.35535 10.6973
RightFoot  -0.955119 -1.79484 19.6354
RightToes  0.000481921 0.542163 -0.142578
Spine  56.3641 -2.41115 5.95882
Spine1  -16.8114 0.781391 0.356999
HEad  -31.2715 2.67248 -2.53666
LeftShoulder1  7.33829 -13.7487 -36.437
LeftArm  0.18491 -21.5422 -42.7008
LeftForeArm  -175.525 -58.349 -165.085
LeftHand  -0.25398 0.0180481 5.50724
RightShoulder  4.00421 10.0277 23.394
RightArm  -2.86097 15.9357 47.1741
RightForeArm  165.639 61.2722 161.532
RightHand  -1.12041 2.31499 -17.0232
LeftUpLeg  -41.6556 17.7975 -6.40384
LeftLeg  40.9392 7.48495 7.2951
LeftFoot  -7.73848 0.0706143 -0.772567
LeftToes  1.06245e-005 4.65868e-005 -8.65517e-006
472
root  5.16895 36.9378 8.46402 51.104 88.1032 43.1139
RightUpLeg  -45.7868 -17.7594 -5.81799
RightLeg  55.0531 6.59809 9.64694
RightFoot  -2.06689 -1.63158 19.6914
RightToes  0.000481921 0.542163 -0.142578
Spine  56.2923 -2.42675 6.12187
Spine1  -16.7488 0.874073 0.353202
HEad  -31.4037 2.74459 -2.49983
LeftShoulder1  7.30097 -13.6769 -36.3987
LeftArm  0.284105 -21.4681 -42.734
LeftForeArm  -175.567 -58.3377 -165.088
LeftHand  -0.25398 0.0180481 5.50724
RightShoulder  3.96488 9.96557 23.23
RightArm  -2.80577 16.1499 47.3609
RightForeArm  165.845 61.325 161.513
RightHand  -1.13114 2.40784 -16.9869
LeftUpLeg  -41.5134 17.9375 -5.76224
LeftLeg  40.369 7.56575 7.22922
LeftFoot  -7.33263 0.072249 -0.802384
LeftToes  1.06245e-005 4.65868e-005 -8.65517e-006
473
root  5.17015 37.0218 8.79714 42.1648 88.1052 33.8969
RightUpLeg  -45.7287 -16.9326 -7.58579
RightLeg  54.1087 1.58787 1.97134
RightFoot  -3.78577 -0.966401 14.0723
RightToes  0.000481921 0.542163 -0.142578
Spine  56.2463 -2.53899 6.62237
Spine1  -16.8174 0.863185 0.418429
HEad  -31.5292 2.73326 -2.39821
LeftShoulder1  7.24136 -13.5698 -36.3187
LeftArm  0.480562 -21.3515 -42.6489
LeftForeArm  -175.518 -58.3136 -165.105
LeftHand  -0.25398 0.0180481 5.50724
RightShoulder  3.93252 9.86414 23.2107
RightArm  -2.72478 16.136 47.6381
RightForeArm  165.986 61.2705 161.566
RightHand  -1.13838 2.44275 -17.0204
LeftUpLeg  -41.419 18.0721 -4.91412
LeftLeg  39.712 7.67515 7.16403
LeftFoot  -6.86233 0.0938871 -1.34223
LeftToes  1.06245e-005 4.65868e-005 -8.65517e-006
474
root  5.16235 37.0168 9.18637 35.8023 87.8985 27.4184
RightUpLeg  -45.2009 -16.2552 -8.99858
RightLeg  52.4449 -4.59897 -6.73611
RightFoot  -5.84297 -0.386333 7.18578
RightToes  0.000481921 0.542163 -0.142578
Spine  56.2714 -2.62442 7.05748
Spine1  -17.0638 0.849964 0.314965
HEad  -31.6205 2.62099 -2.39025
LeftShoulder1  7.2557 -13.6036 -36.3187
LeftArm  0.49991 -21.2219 -42.3426
LeftForeArm  -175.569 -58.256 -165.134
LeftHand  -0.25398 0.0180481 5.50724
RightShoulder  3.93565 9.82896 23.3174
RightArm  -2.70435 16.0386 47.7577
RightForeArm  166.203 61.1512 161.672
RightHand  -1.12257 2.37577 -16.9279
LeftUpLeg  -41.524 18.2803 -4.0437
LeftLeg  39.722 7.6282 7.12324
LeftFoot  -6.48831 0.132233 -2.20219
LeftToes  1.06245e-005 4.65868e-005 -8.65517e-006
475
root  5.15293 36.9136 9.66557 34.8994 87.6541 26.6366
RightUpLeg  -43.3377 -15.6092 -10.4113
RightLeg  49.0238 -9.00932 -11.3024
RightFoot  -7.83505 -0.165426 3.93991
RightToes  0.000481921 0.542163 -0.142578
Spine  56.3828 -2.61026 7.17949
Spine1  -17.107 0.853856 0.300753
HEad  -31.687 2.49721 -2.47836
LeftShoulder1  7.32447 -13.7289 -36.4065
LeftArm  0.334359 -21.0777 -42.0439
LeftForeArm  -175.808 -58.2511 -165.117
LeftHand  -0.25398 0.0180481 5.50724
RightShoulder  3.96603 9.89499 23.4032
RightArm  -2.75422 15.9462 47.7564
RightForeArm  166.457 61.0725 161.752
RightHand  -1.11766 2.40124 -16.8036
LeftUpLeg  -41.735 18.5789 -3.24402
LeftLeg  40.3058 7.44432 7.10026
LeftFoot  -6.15843 0.156983 -2.6541
LeftToes  1.06245e-005 4.65868e-005 -8.65517e-006
